<svg xmlns="http://www.w3.org/2000/svg" width="87" height="34.946" viewBox="0 0 87 34.946">
  <g id="Logo_Pizza" data-name="Logo Pizza" transform="translate(-917.5 -556)">
    <text id="PIZZ" transform="translate(920 583)" fill="#fff" font-size="30" font-family="Arial-BoldMT, Arial" font-weight="700"><tspan x="0" y="0">PIZZ</tspan></text>
    <g id="Pizza" transform="matrix(-0.921, 0.391, -0.391, -0.921, 2132.506, 715.816)">
      <g id="Caminho_6" data-name="Caminho 6" transform="translate(995.852 588.193) rotate(-158)" fill="#b90e0a">
        <path d="M 0.7443298697471619 20.0579891204834 L 8.297135353088379 1.340285062789917 L 15.80532646179199 20.04008102416992 L 0.7443298697471619 20.0579891204834 Z" stroke="none"/>
        <path d="M 8.295989036560059 2.679338455200195 L 1.485618591308594 19.55710792541504 L 15.06613159179688 19.54095840454102 L 8.295989036560059 2.679338455200195 M 8.298291206359863 0.001232147216796875 L 16.54453086853027 20.5392017364502 L 0.0030517578125 20.55887222290039 L 8.298291206359863 0.001232147216796875 Z" stroke="none" fill="#fff"/>
      </g>
      <line id="Linha_1" data-name="Linha 1" x2="17" y2="7" transform="translate(987.516 562.946)" fill="none" stroke="#b90e0a" stroke-width="1"/>
      <line id="Linha_2" data-name="Linha 2" x2="16" y2="7" transform="translate(987.516 563.5)" fill="none" stroke="#b90e0a" stroke-width="1"/>
      <path id="Caminho_1" data-name="Caminho 1" d="M988.344,564.406a12.509,12.509,0,0,1,13.5,5.844" transform="translate(0.016 0.438)" fill="none" stroke="#fff" stroke-width="1"/>
      <path id="Caminho_2" data-name="Caminho 2" d="M988.531,566.5a3.368,3.368,0,0,1,1.359-.14c2.268-.027,7.782.554,10.641,5.64" transform="translate(0.019)" fill="none" stroke="#fff" stroke-width="1"/>
      <g id="Elipse_2" data-name="Elipse 2" transform="translate(992.417 571.971)" fill="#b90e0a" stroke="#fff" stroke-width="1">
        <circle cx="1.799" cy="1.799" r="1.799" stroke="none"/>
        <circle cx="1.799" cy="1.799" r="1.299" fill="none"/>
      </g>
      <g id="Caminho_4" data-name="Caminho 4" transform="translate(989.815 567.337)" fill="#b90e0a">
        <path d="M 1.556671142578125 2.652644395828247 C 0.9740211367607117 2.652644395828247 0.5000011324882507 2.169804573059082 0.5000011324882507 1.576324462890625 C 0.5000011324882507 0.9828444719314575 0.9740211367607117 0.5000044703483582 1.556671142578125 0.5000044703483582 C 2.139321088790894 0.5000044703483582 2.613341093063354 0.9828444719314575 2.613341093063354 1.576324462890625 C 2.613341093063354 2.169804573059082 2.139321088790894 2.652644395828247 1.556671142578125 2.652644395828247 Z" stroke="none"/>
        <path d="M 1.556671142578125 1.000004529953003 C 1.249721169471741 1.000004529953003 1.000001192092896 1.258544445037842 1.000001192092896 1.576324462890625 C 1.000001192092896 1.894104480743408 1.249721169471741 2.152644634246826 1.556671142578125 2.152644634246826 C 1.863621115684509 2.152644634246826 2.113341093063354 1.894104480743408 2.113341093063354 1.576324462890625 C 2.113341093063354 1.258544445037842 1.863621115684509 1.000004529953003 1.556671142578125 1.000004529953003 M 1.556671142578125 4.529953002929688e-06 C 2.416401147842407 4.529953002929688e-06 3.113341093063354 0.7057445049285889 3.113341093063354 1.576324462890625 C 3.113341093063354 2.446904420852661 2.416401147842407 3.152644395828247 1.556671142578125 3.152644395828247 C 0.6969411373138428 3.152644395828247 1.192092895507812e-06 2.446904420852661 1.192092895507812e-06 1.576324462890625 C 1.192092895507812e-06 0.7057445049285889 0.6969411373138428 4.529953002929688e-06 1.556671142578125 4.529953002929688e-06 Z" stroke="none" fill="#fff"/>
      </g>
      <g id="Caminho_5" data-name="Caminho 5" transform="translate(989.815 578.294)" fill="#b90e0a">
        <path d="M 1.556671142578125 2.652644395828247 C 0.9740211367607117 2.652644395828247 0.5000011324882507 2.169804573059082 0.5000011324882507 1.576324462890625 C 0.5000011324882507 0.9828444719314575 0.9740211367607117 0.5000044703483582 1.556671142578125 0.5000044703483582 C 2.139321088790894 0.5000044703483582 2.613341093063354 0.9828444719314575 2.613341093063354 1.576324462890625 C 2.613341093063354 2.169804573059082 2.139321088790894 2.652644395828247 1.556671142578125 2.652644395828247 Z" stroke="none"/>
        <path d="M 1.556671142578125 1.000004529953003 C 1.249721169471741 1.000004529953003 1.000001192092896 1.258544445037842 1.000001192092896 1.576324462890625 C 1.000001192092896 1.894104480743408 1.249721169471741 2.152644634246826 1.556671142578125 2.152644634246826 C 1.863621115684509 2.152644634246826 2.113341093063354 1.894104480743408 2.113341093063354 1.576324462890625 C 2.113341093063354 1.258544445037842 1.863621115684509 1.000004529953003 1.556671142578125 1.000004529953003 M 1.556671142578125 4.529953002929688e-06 C 2.416401147842407 4.529953002929688e-06 3.113341093063354 0.7057445049285889 3.113341093063354 1.576324462890625 C 3.113341093063354 2.446904420852661 2.416401147842407 3.152644395828247 1.556671142578125 3.152644395828247 C 0.6969411373138428 3.152644395828247 1.192092895507812e-06 2.446904420852661 1.192092895507812e-06 1.576324462890625 C 1.192092895507812e-06 0.7057445049285889 0.6969411373138428 4.529953002929688e-06 1.556671142578125 4.529953002929688e-06 Z" stroke="none" fill="#fff"/>
      </g>
      <path id="Caminho_3" data-name="Caminho 3" d="M995.047,580.3" transform="translate(0.015 -0.052)" fill="none" stroke="#b90e0a" stroke-width="1"/>
      <g id="Caminho_7" data-name="Caminho 7" transform="translate(993.114 579.95) rotate(44)" fill="#b90e0a">
        <path d="M 0.7000000476837158 2.5 L 0.5 2.5 L 0.5 0.5 L 0.7000000476837158 0.5 L 0.7000000476837158 2.5 Z" stroke="none"/>
        <path d="M 0 0 L 1.200000047683716 0 L 1.200000047683716 3 L 0 3 L 0 0 Z" stroke="none" fill="#b90e0a"/>
      </g>
    </g>
    <path id="Caminho_8" data-name="Caminho 8" d="M0,0H86" transform="translate(918.5 558.5)" fill="none" stroke="#fff" stroke-width="2"/>
    <line id="Linha_7" data-name="Linha 7" x2="86" transform="translate(917.5 589.946)" fill="none" stroke="#fff" stroke-width="2"/>
  </g>
</svg>
